# Blender v2.91.2 OBJ File: 'arrow.blend'
# www.blender.org
mtllib arrow.mtl
o Cube.001
v 0.100000 -0.050000 0.042747
v 0.100000 0.050000 0.042747
v 0.000000 -0.050000 0.208465
v 0.000000 0.050000 0.208465
v -0.100000 -0.050000 0.042747
v -0.100000 0.050000 0.042747
v 0.047002 -0.050000 0.042747
v -0.047002 -0.050000 0.042747
v -0.047002 0.050000 0.042747
v 0.047002 0.050000 0.042747
v 0.047002 -0.050000 -0.191535
v -0.047002 -0.050000 -0.191535
v -0.047002 0.050000 -0.191535
v 0.047002 0.050000 -0.191535
vt 0.625000 0.000000
vt 0.375000 0.250000
vt 0.375000 0.000000
vt 0.625000 0.500000
vt 0.375000 0.750000
vt 0.375000 0.500000
vt 0.625000 0.916667
vt 0.375000 1.000000
vt 0.375000 0.916667
vt 0.625000 0.833333
vt 0.625000 0.750000
vt 0.375000 0.833333
vt 0.625000 0.833333
vt 0.375000 0.916667
vt 0.375000 0.833333
vt 0.625000 0.916667
vt 0.625000 0.250000
vt 0.625000 1.000000
vn 0.8562 0.0000 0.5167
vn -0.8562 0.0000 0.5167
vn -0.0000 0.0000 -1.0000
vn 0.0000 1.0000 0.0000
vn 0.0000 -1.0000 0.0000
vn -1.0000 0.0000 0.0000
vn 1.0000 0.0000 -0.0000
usemtl None
s off
f 2/1/1 3/2/1 1/3/1
f 4/4/2 5/5/2 3/6/2
f 10/7/3 1/8/3 7/9/3
f 10/7/4 9/10/4 4/4/4
f 6/11/3 8/12/3 5/5/3
f 13/13/3 11/14/3 12/15/3
f 7/9/5 3/6/5 8/12/5
f 9/10/6 12/15/6 8/12/6
f 7/9/7 14/16/7 10/7/7
f 2/1/1 4/17/1 3/2/1
f 4/4/2 6/11/2 5/5/2
f 10/7/3 2/18/3 1/8/3
f 4/4/4 2/18/4 10/7/4
f 10/7/4 14/16/4 13/13/4
f 9/10/4 6/11/4 4/4/4
f 10/7/4 13/13/4 9/10/4
f 6/11/3 9/10/3 8/12/3
f 13/13/3 14/16/3 11/14/3
f 7/9/5 1/8/5 3/6/5
f 3/6/5 5/5/5 8/12/5
f 8/12/5 12/15/5 11/14/5
f 11/14/5 7/9/5 8/12/5
f 9/10/6 13/13/6 12/15/6
f 7/9/7 11/14/7 14/16/7
